<?xml version="1.0" encoding="UTF-8" standalone="no"?>
<!DOCTYPE svg PUBLIC "-//W3C//DTD SVG 1.1//EN"
 "http://www.w3.org/Graphics/SVG/1.1/DTD/svg11.dtd">
<!-- Generated by graphviz version 10.0.1 (0)
 -->
<!-- Title: G Pages: 1 -->
<svg width="170pt" height="188pt"
 viewBox="0.00 0.00 170.00 188.00" xmlns="http://www.w3.org/2000/svg" xmlns:xlink="http://www.w3.org/1999/xlink">
<g id="graph0" class="graph" transform="scale(1 1) rotate(0) translate(4 184)">
<title>G</title>
<polygon fill="white" stroke="none" points="-4,4 -4,-184 166,-184 166,4 -4,4"/>
<!-- A0x648d8ce642a0 -->
<g id="node1" class="node">
<title>A0x648d8ce642a0</title>
<ellipse fill="none" stroke="black" cx="63" cy="-162" rx="27" ry="18"/>
<text text-anchor="middle" x="63" y="-155.82" font-family="Times,serif" font-size="14.00">1</text>
</g>
<!-- A0x648d8ce642c0 -->
<g id="node2" class="node">
<title>A0x648d8ce642c0</title>
<ellipse fill="none" stroke="black" cx="27" cy="-90" rx="27" ry="18"/>
<text text-anchor="middle" x="27" y="-83.83" font-family="Times,serif" font-size="14.00">2</text>
</g>
<!-- A0x648d8ce642a0&#45;&gt;A0x648d8ce642c0 -->
<g id="edge1" class="edge">
<title>A0x648d8ce642a0&#45;&gt;A0x648d8ce642c0</title>
<path fill="none" stroke="black" d="M54.65,-144.76C50.42,-136.55 45.19,-126.37 40.42,-117.09"/>
<polygon fill="black" stroke="black" points="43.68,-115.79 36,-108.49 37.46,-118.99 43.68,-115.79"/>
</g>
<!-- A0x648d8ce642e0 -->
<g id="node3" class="node">
<title>A0x648d8ce642e0</title>
<ellipse fill="none" stroke="black" cx="99" cy="-90" rx="27" ry="18"/>
<text text-anchor="middle" x="99" y="-83.83" font-family="Times,serif" font-size="14.00">3</text>
</g>
<!-- A0x648d8ce642a0&#45;&gt;A0x648d8ce642e0 -->
<g id="edge2" class="edge">
<title>A0x648d8ce642a0&#45;&gt;A0x648d8ce642e0</title>
<path fill="none" stroke="black" d="M71.35,-144.76C75.58,-136.55 80.81,-126.37 85.58,-117.09"/>
<polygon fill="black" stroke="black" points="88.54,-118.99 90,-108.49 82.32,-115.79 88.54,-118.99"/>
</g>
<!-- A0x648d8ce64300 -->
<g id="node4" class="node">
<title>A0x648d8ce64300</title>
<ellipse fill="none" stroke="black" cx="63" cy="-18" rx="27" ry="18"/>
<text text-anchor="middle" x="63" y="-11.82" font-family="Times,serif" font-size="14.00">4</text>
</g>
<!-- A0x648d8ce642e0&#45;&gt;A0x648d8ce64300 -->
<g id="edge3" class="edge">
<title>A0x648d8ce642e0&#45;&gt;A0x648d8ce64300</title>
<path fill="none" stroke="black" d="M90.65,-72.76C86.42,-64.55 81.19,-54.37 76.42,-45.09"/>
<polygon fill="black" stroke="black" points="79.68,-43.79 72,-36.49 73.46,-46.99 79.68,-43.79"/>
</g>
<!-- A0x648d8ce64320 -->
<g id="node5" class="node">
<title>A0x648d8ce64320</title>
<ellipse fill="none" stroke="black" cx="135" cy="-18" rx="27" ry="18"/>
<text text-anchor="middle" x="135" y="-11.82" font-family="Times,serif" font-size="14.00">5</text>
</g>
<!-- A0x648d8ce642e0&#45;&gt;A0x648d8ce64320 -->
<g id="edge4" class="edge">
<title>A0x648d8ce642e0&#45;&gt;A0x648d8ce64320</title>
<path fill="none" stroke="black" d="M107.35,-72.76C111.58,-64.55 116.81,-54.37 121.58,-45.09"/>
<polygon fill="black" stroke="black" points="124.54,-46.99 126,-36.49 118.32,-43.79 124.54,-46.99"/>
</g>
</g>
</svg>
